# xmcd CD database file
#
# Track frame offsets:
#	182
#	11850
#	25307
#	43365
#	84492
#	95117
#	105120
#	117320
#	134855
#	147232
#	164985
#	179057
#
# Disc length: 2595 seconds
#
# Revision: 0
# Processed by: cddbd v1.4PL0 Copyright (c) Steve Scherf et al.
# Submitted via: CDex 1.50Beta7
#
DISCID=b70a210c
DTITLE=Arturo HITA et ses Mariachis - Tequila
DYEAR=1993
DGENRE=Salsa
TTITLE0=Carmentea
TTITLE1=Tu enamorado
TTITLE2=Tequila
TTITLE3=Meddley cumbia
TTITLE4=El cascabel
TTITLE5=El ultimo trago
TTITLE6=Yo no me caso compadre
TTITLE7=Mexico lindo
TTITLE8=Yo estare contigo
TTITLE9=Mexico
TTITLE10=Alma llanera
TTITLE11=A mi manera
EXTD=YEAR: 1993
EXTT0=
EXTT1=
EXTT2=
EXTT3=
EXTT4=
EXTT5=
EXTT6=
EXTT7=
EXTT8=
EXTT9=
EXTT10=
EXTT11=
PLAYORDER=
